{"title":"X-Men.xXx.An.Axel.Braun.Parody.xXx.2014.DVDRiP-ViK","uid":10710345,"size":1872336384,"categoryP":"porn","categoryS":"movies","magnet":"?xt=urn:btih:32d9c23948b8b0b69ebaf8278fd47ce61aea7081&amp;dn=X-Men.xXx.An.Axel.Braun.Parody.xXx.2014.DVDRiP-ViK&amp;tr=udp%3A%2F%2Ftracker.openbittorrent.com%3A80&amp;tr=udp%3A%2F%2Fopen.demonii.com%3A1337&amp;tr=udp%3A%2F%2Ftracker.coppersurfer.tk%3A6969&amp;tr=udp%3A%2F%2Fexodus.desync.com%3A6969","seeders":0,"leechers":1,"uploader":"iH2OSO4","files":-1,"time":1407346192,"description":"2 Disc Collector's Edition Set!\n\nFeaturing Non-Sex Version!\n\nIt was just a matter of time until mutants got the porn parody treatment, courtesy of legendary director Axel Braun and adult powerhouse Vivid Entertainment...and it was worth the wait! Wolverine, Rogue, Cyclops, Jean Grey, Storm, Colossus, Kitty Pryde, and Polaris joins up with Professor X to defeat the villains lead by Magneto, in yet another Braun masterpiece bound to become an instant classic!\n\nSOURCE :  &lt;a href=&quot; http://vasileturcu.ro/i/88994.html&quot; rel=&quot;nofollow&quot; target=&quot;_NEW&quot;&gt; http://vasileturcu.ro/i/88994.html&lt;/a&gt;\n\nX-Men.xXx.An.Axel.Braun.Parody.xXx.2014.DVDRiP-ViK.mp4\nFormat                           : MPEG-4\nFormat profile                   : Base Media\nCodec ID                         : isom\nFile size                        : 1.74 GiB\nDuration                         : 2h 2mn\nOverall bit rate                 : 2 035 Kbps\nEncoded date                     : UTC 2014-08-06 14:30:58\nTagged date                      : UTC 2014-08-06 14:30:58\n\nVideo\nID                               : 1\nFormat                           : MPEG-4 Visual\nFormat profile                   : Simple@L1\nFormat settings, BVOP            : No\nFormat settings, QPel            : No\nFormat settings, GMC             : No warppoints\nFormat settings, Matrix          : Default (H.263)\nCodec ID                         : 20\nDuration                         : 2h 2mn\nBit rate mode                    : Variable\nBit rate                         : 1 907 Kbps\nMaximum bit rate                 : 5 700 Kbps\nWidth                            : 712 pixels\nHeight                           : 400 pixels\nDisplay aspect ratio             : 16:9\nFrame rate mode                  : Constant\nFrame rate                       : 23.976 fps\nColor space                      : YUV\nChroma subsampling               : 4:2:0\nBit depth                        : 8 bits\nScan type                        : Progressive\nCompression mode                 : Lossy\nBits/(Pixel*Frame)               : 0.279\nStream size                      : 1.63 GiB (94%)\nWriting library                  : Lavc53.8.0\nEncoded date                     : UTC 2014-08-06 14:30:58\nTagged date                      : UTC 2014-08-06 14:32:42\n\nAudio\nID                               : 2\nFormat                           : AAC\nFormat/Info                      : Advanced Audio Codec\nFormat profile                   : LC\nCodec ID                         : 40\nDuration                         : 2h 2mn\nBit rate mode                    : Variable\nBit rate                         : 126 Kbps\nMaximum bit rate                 : 239 Kbps\nChannel(s)                       : 2 channels\nChannel positions                : Front: L R\nSampling rate                    : 44.1 KHz\nCompression mode                 : Lossy\nStream size                      : 110 MiB (6%)\nEncoded date                     : UTC 2014-08-06 14:32:25\nTagged date                      : UTC 2014-08-06 14:32:42\n","torrent":{"xt":"urn:btih:32d9c23948b8b0b69ebaf8278fd47ce61aea7081","amp;dn":"X-Men.xXx.An.Axel.Braun.Parody.xXx.2014.DVDRiP-ViK","amp;tr":["udp%3A%2F%2Ftracker.openbittorrent.com%3A80","udp%3A%2F%2Fopen.demonii.com%3A1337","udp%3A%2F%2Ftracker.coppersurfer.tk%3A6969","udp%3A%2F%2Fexodus.desync.com%3A6969"],"infoHash":"32d9c23948b8b0b69ebaf8278fd47ce61aea7081","infoHashBuffer":{"type":"Buffer","data":[50,217,194,57,72,184,176,182,158,186,248,39,143,212,124,230,26,234,112,129]},"announce":[],"urlList":[]}}